<?xml version="1.0" standalone="no"?><!DOCTYPE svg PUBLIC "-//W3C//DTD SVG 1.1//EN" "http://www.w3.org/Graphics/SVG/1.1/DTD/svg11.dtd"><svg t="1599834909161" class="icon" viewBox="0 0 1024 1024" version="1.1" xmlns="http://www.w3.org/2000/svg" p-id="1018" xmlns:xlink="http://www.w3.org/1999/xlink" width="200" height="200"><defs><style type="text/css"></style></defs><path d="M748.408 485.276c55.46-28.36 90.754-78.78 82.56-162.6-10.716-114.702-104.916-153.146-229.7-163.858V0h-97.056v154.406c-25.21 0-51.05 0.63-76.888 1.26V0h-97.056v158.818c-35.684 1.078-77.244 0.552-194.74 0v103.356c76.628-1.356 116.834-6.28 126.046 42.854v434.858c-5.85 38.984-37.048 33.37-106.51 32.142L135.53 887.36c176.962 0 194.74 0.63 194.74 0.63V1024h97.056v-134.12c26.468 0.63 52.308 0.63 76.888 0.63V1024h97.056v-136.01c162.598-8.824 271.294-49.788 285.79-202.934 11.342-122.892-46.64-177.724-138.652-199.78zM429.216 269.106c54.83 0 226.252-17.014 226.252 97.056 0 109.03-171.42 96.424-226.252 96.424v-193.48z m0 503.552V559.642c65.544 0 266.254-18.276 266.254 106.51-0.002 120.372-200.71 106.506-266.254 106.506z" fill="" p-id="1019"></path></svg>