<?xml version="1.0" encoding="UTF-8"?>
<svg width="32px" height="32px" viewBox="0 0 32 32" version="1.1" xmlns="http://www.w3.org/2000/svg" xmlns:xlink="http://www.w3.org/1999/xlink">
    <!-- Generator: Sketch 52.2 (67145) - http://www.bohemiancoding.com/sketch -->
    <title>Telegram</title>
    <desc>Created with Sketch.</desc>
    <g id="页面-1" stroke="none" stroke-width="1" fill="none" fill-rule="evenodd">
        <g id="Rampdefi备份" transform="translate(-1177.000000, -8089.000000)" fill-rule="nonzero">
            <g id="编组-2" transform="translate(1121.000000, 8089.000000)">
                <g id="Telegram" transform="translate(56.000000, 0.000000)">
                    <path d="M32.0000372,16.0000186 C32.0000376,7.16344584 24.8365914,-1.21438213e-13 16.0000186,-1.21438213e-13 C7.16344584,-3.86259946e-07 5.16758353e-14,7.16344584 5.16758353e-14,16.0000186 C-1.33428571e-06,24.8365897 7.16344584,32.0000355 16.0000186,32.0000355 C24.8365914,32.0000376 32.0000372,24.8365914 32.0000372,16.0000186 Z" id="路径" fill="#FFFFFF"></path>
                    <path d="M23.3961123,8.40728166 L5.84727938,14.8072891 C5.65994419,14.8905595 5.57558284,15.1099285 5.65885325,15.2972647 C5.69617579,15.3812301 5.76331431,15.4483683 5.84727941,15.4856908 L9.96887795,17.367293 L11.9528803,22.9352995 C11.9963916,23.0526515 12.1093442,23.1296647 12.2344806,23.1272997 L12.2472806,23.1272997 C12.3084129,23.1255175 12.3671098,23.1029418 12.4136808,23.0632996 L15.562497,20.5032967 L13.5272946,18.9672949 L20.0937085,23.7673005 C20.2609415,23.8858819 20.4926402,23.8464421 20.6112216,23.6792091 C20.6388759,23.6402088 20.6587358,23.5962334 20.6697095,23.5497002 L23.8825258,8.80408933 C23.9072829,8.60058126 23.7623769,8.41553573 23.5588691,8.39077945 C23.5040684,8.38411282 23.4484709,8.38975318 23.3961255,8.40728969 L23.3961123,8.40728166 Z M12.2472868,21.7577034 L10.5320848,17.1368856 L20.2729087,11.1720661 L13.0153065,18.6472623 C12.9823105,18.6850315 12.9563045,18.728375 12.9385064,18.7752625 L12.2472868,21.7577034 Z" id="形状" fill="#1A98A8"></path>
                </g>
            </g>
        </g>
    </g>
</svg>