<?xml version="1.0" encoding="UTF-8"?>
<svg width="32px" height="32px" viewBox="0 0 32 32" version="1.1" xmlns="http://www.w3.org/2000/svg" xmlns:xlink="http://www.w3.org/1999/xlink">
    <!-- Generator: Sketch 52.2 (67145) - http://www.bohemiancoding.com/sketch -->
    <title>Twitter</title>
    <desc>Created with Sketch.</desc>
    <g id="页面-1" stroke="none" stroke-width="1" fill="none" fill-rule="evenodd">
        <g id="Rampdefi备份" transform="translate(-1121.000000, -8089.000000)" fill-rule="nonzero">
            <g id="编组-2" transform="translate(1121.000000, 8089.000000)">
                <g id="Twitter">
                    <path d="M32.0000372,16.0000186 C32.0000376,7.16344584 24.8365914,-1.21438213e-13 16.0000186,-1.21438213e-13 C7.16344584,-3.86259946e-07 5.16758353e-14,7.16344584 5.16758353e-14,16.0000186 C-1.33428571e-06,24.8365897 7.16344584,32.0000355 16.0000186,32.0000355 C24.8365914,32.0000376 32.0000372,24.8365914 32.0000372,16.0000186 Z" id="路径" fill="#FFFFFF"></path>
                    <g id="tw" transform="translate(6.545455, 8.727273)" fill="#1A98A8">
                        <path d="M18.6697258,1.96737932 C17.9893415,2.2676076 17.2607903,2.47151727 16.4943391,2.56169683 C17.2792375,2.09341756 17.8786734,1.35462964 18.1614902,0.472376973 C17.4308977,0.904797558 16.6203774,1.21424193 15.7555512,1.38946765 C15.0669714,0.652721079 14.0822611,0.189575202 12.9940424,0.189575202 C10.9037019,0.189575202 9.20888757,1.88438951 9.20888757,3.97370937 C9.20888757,4.27291698 9.24474625,4.56085214 9.30726254,4.8354585 C6.16559768,4.68073631 3.37438427,3.17446152 1.50947762,0.886350375 C1.18464809,1.44479419 0.996108574,2.09341756 0.996108574,2.78507436 C0.996108574,4.09665557 1.6641998,5.25864799 2.68067112,5.93287827 C2.05869034,5.91238974 1.47668096,5.74945713 0.968430295,5.46152197 C0.967409621,5.47791279 0.967409621,5.49738065 0.967409621,5.5127508 C0.967409621,7.34179877 2.27079542,8.87061845 4.00352477,9.22311125 C3.68484931,9.30611607 3.34978302,9.35222652 3.00446496,9.35222652 C2.76161958,9.35222652 2.52593392,9.33173799 2.29334031,9.2825505 C2.77493337,10.7939437 4.17361711,11.883183 5.82847503,11.9098256 C4.53430532,12.9273326 2.90199228,13.5308662 1.13032722,13.5308662 C0.824980556,13.5308662 0.520639559,13.5103777 0.225544668,13.474504 C1.89987045,14.555533 3.8877383,15.1805908 6.02624564,15.1805908 C12.985847,15.1805908 16.7925261,9.41268645 16.7925261,4.41636671 C16.7925261,4.25139276 16.7904697,4.08847516 16.7822743,3.92554256 C17.5210622,3.39066431 18.1614902,2.72359375 18.6697258,1.96737932 Z" id="路径"></path>
                    </g>
                </g>
            </g>
        </g>
    </g>
</svg>