<?xml version="1.0" encoding="UTF-8"?>
<svg width="104px" height="26px" viewBox="0 0 104 26" version="1.1" xmlns="http://www.w3.org/2000/svg" xmlns:xlink="http://www.w3.org/1999/xlink">
    <title>justswap</title>
    <g id="页面-1" stroke="none" stroke-width="1" fill="none" fill-rule="evenodd">
        <g id="桌面端" transform="translate(-427.000000, -552.000000)" stroke="#FFB302">
            <g id="kv" transform="translate(-111.000000, 41.000000)">
                <g id="编组-2" transform="translate(451.000000, 499.000000)">
                    <g id="justswap" transform="translate(89.000000, 15.000000)">
                        <g id="Group" transform="translate(22.142857, 2.857143)" fill="#FFB302" fill-rule="nonzero" stroke-width="0.573970199">
                            <path d="M6.08540088,8.67028507 C6.08540088,9.81499507 5.9964296,10.6650146 5.81848437,11.2203689 C5.64053914,11.7757233 5.29613421,12.2205668 4.7852592,12.5549128 C4.27438421,12.8892588 3.72333629,13.0564293 3.13209894,13.0564293 C2.54086157,13.0564293 1.99555374,12.9657606 1.49615909,12.7844203 C1.24506924,12.6932446 0.848690421,12.4548737 0.307022633,12.0693079 L0.307022018,12.0693087 C-0.0172722152,11.838472 -0.0969904993,11.3944509 0.127135734,11.0673639 L0.127135734,11.0673639 C0.344677618,10.749886 0.780265157,10.6648988 1.10348099,10.8768698 C1.56027746,11.1764451 1.87198451,11.3646139 2.0386023,11.4413761 C2.38301241,11.6000488 2.71880723,11.679384 3.04599684,11.679384 C3.37318644,11.679384 3.67454077,11.5603813 3.95006886,11.3223723 C4.22559694,11.0843633 4.40066946,10.7755229 4.47529165,10.3958418 C4.54991384,10.0161608 4.58722438,9.42398057 4.58722438,8.61928336 L4.58722438,1.04663798 C4.58722438,0.637600476 4.92260261,0.306010061 5.33631263,0.306010061 L5.33631263,0.306010061 C5.75002264,0.306010061 6.08540088,0.637600476 6.08540088,1.04663798 L6.08540088,8.67028507 Z M16.0301931,12.7504192 L16.0301931,12.7504192 C15.6355043,12.7504192 15.3155457,12.4340744 15.3155457,12.0438431 L15.3155457,11.3563734 C14.3856384,12.4444146 13.2835426,12.988427 12.0092252,12.988427 C11.3318853,12.988427 10.7176964,12.8155898 10.1666403,12.46991 C9.61558414,12.1242302 9.20229821,11.6482194 8.92677007,11.0418631 C8.651242,10.4355068 8.51348,9.50331871 8.51348,8.24527107 L8.51348,4.18317769 C8.51348,3.79764808 8.82958364,3.48511459 9.21951721,3.48511459 L9.21951721,3.48511459 C9.60945086,3.48511459 9.92555443,3.79764808 9.92555443,4.18317769 L9.92555443,7.90525993 C9.92555443,8.92529857 9.97434514,9.61948114 10.0719279,9.98782836 C10.1695109,10.3561757 10.3130129,10.6678495 10.5024385,10.9228591 C10.6918641,11.1778688 10.9329475,11.3677064 11.2256961,11.4923778 C11.5184447,11.6170493 11.8743298,11.679384 12.2933621,11.679384 C12.7123944,11.679384 13.1228103,11.5773816 13.5246221,11.3733739 C13.9264339,11.1693662 14.2708388,10.8860264 14.5578472,10.523346 C14.8448557,10.1606656 15.0428886,9.77532343 15.1519517,9.367308 C15.2610149,8.95929257 15.3155457,8.14327386 15.3155457,6.91922749 L15.3155457,4.19169065 C15.3155457,3.80145946 15.6355043,3.48511459 16.0301931,3.48511459 L16.0301931,3.48511459 C16.4248819,3.48511459 16.7448406,3.80145946 16.7448406,4.19169065 L16.7448406,12.0438431 C16.7448406,12.4340744 16.4248819,12.7504192 16.0301931,12.7504192 Z M23.5555164,5.04066573 L23.5555164,5.04066573 C23.298009,5.30447867 22.8873506,5.35044942 22.5767049,5.15023784 C21.9797718,4.7655126 21.5339933,4.57315036 21.23937,4.57315036 C20.8834796,4.57315036 20.5849953,4.68365289 20.3439082,4.90466126 C20.1028211,5.12566963 19.9822794,5.39767586 19.9822794,5.72068809 C19.9822794,6.04370032 20.1171714,6.32704014 20.3869593,6.57071604 C20.6567471,6.81439194 21.1360441,7.11473214 21.8248643,7.47174564 C22.5136845,7.82875921 23.0446421,8.2226015 23.4177531,8.6532845 C23.790864,9.08396743 23.9774167,9.6109795 23.9774167,10.2343365 C23.9774167,11.0276999 23.6990227,11.6963819 23.1422264,12.2404024 C22.58543,12.7844231 21.8994901,13.0564293 21.0843862,13.0564293 C20.4497771,13.0564293 19.682293,12.7225136 18.7819339,12.0546824 L18.7819338,12.0546826 C18.5021154,11.8471304 18.445454,11.4546005 18.6553771,11.1779425 C18.6665299,11.1632442 18.6783316,11.1490384 18.6907479,11.1353661 L18.6907479,11.1353661 C18.9353602,10.8660128 19.3481307,10.8274182 19.6394767,11.0466589 C20.2301481,11.4911426 20.6945639,11.7133851 21.032725,11.7133851 C21.4689778,11.7133851 21.8420831,11.5717152 22.1520522,11.2883711 C22.4620214,11.0050271 22.6170036,10.6735195 22.6170036,10.2938384 C22.6170036,9.91415743 22.4763716,9.59681679 22.1951033,9.34180714 C21.913835,9.08679743 21.4316681,8.78929071 20.7485881,8.44927779 C20.065508,8.10926493 19.5489006,7.732423 19.1987503,7.31874064 C18.8486001,6.90505829 18.6735275,6.36104585 18.6735275,5.68668697 C18.6735275,5.01232809 18.9232211,4.43714827 19.4226157,3.96113024 C19.9220104,3.4851122 20.5821199,3.24710676 21.402964,3.24710676 C21.8634429,3.24710676 22.5522074,3.56008726 23.4692571,4.18604826 L23.4692563,4.18604941 C23.7281626,4.36277399 23.7931476,4.71355211 23.6144042,4.96953427 C23.5967679,4.99479151 23.5770731,5.01858121 23.5555164,5.04066573 Z M30.7845343,4.70915483 L28.2653011,4.70915483 L28.2653011,11.2033684 C28.2653011,11.4413774 28.2997416,11.5858806 28.3686236,11.6368826 C28.4375057,11.6878846 28.6097081,11.7133851 28.8852362,11.7133851 L29.1014024,11.7133851 C29.4385248,11.7133851 29.7118164,11.9835901 29.7118164,12.3169049 L29.7118164,12.3169049 C29.7118164,12.6654227 29.4486704,12.9590936 29.0987408,13.0010969 C28.7914389,13.0379859 28.5767671,13.0564293 28.4547258,13.0564293 C27.9036696,13.0564293 27.4961237,12.9232596 27.232076,12.6569161 C26.9680283,12.3905727 26.8360064,11.9683964 26.8360064,11.3903745 L26.8360064,4.70915483 L26.8360064,3.48511459 L26.8360064,0.706576063 C26.8360064,0.316344879 27.1559649,9.76996262e-15 27.5506538,9.76996262e-15 L27.5506538,9.76996262e-15 C27.9453426,9.76996262e-15 28.2653011,0.316344879 28.2653011,0.706576063 L28.2653011,3.48511459 L30.7845343,3.48511459 C31.1264048,3.48511459 31.4035456,3.75912533 31.4035456,4.09713471 L31.4035456,4.09713471 C31.4035456,4.43514409 31.1264048,4.70915483 30.7845343,4.70915483 Z M37.9841307,2.48537037 C37.6694207,2.13179251 37.4382506,1.90685556 37.2906204,1.81055953 C36.9691709,1.60088492 36.5931956,1.49604919 36.1626829,1.49604919 C35.7321703,1.49604919 35.370545,1.63205229 35.0777965,1.9040626 C34.7850479,2.17607291 34.6386758,2.52458088 34.6386758,2.94959698 C34.6386758,3.37461308 34.7764377,3.74578824 35.0519658,4.06313359 C35.3274939,4.38047894 35.961773,4.89899081 36.9548221,5.61868474 C37.9478713,6.33837866 38.6739918,7.01556082 39.1332052,7.65025157 C39.5924187,8.28494229 39.8220221,8.95362421 39.8220221,9.65631743 C39.8220221,10.5743523 39.4632669,11.3705371 38.7457458,12.044896 C38.0282248,12.7192549 37.1930428,13.0564293 36.2401748,13.0564293 C35.2415899,13.0564293 34.0856201,12.318751 32.7722649,10.8433944 L32.7722663,10.8433931 C32.5512206,10.5950816 32.5756234,10.2166161 32.8267715,9.998067 C32.8571566,9.97162571 32.8901457,9.94826214 32.925244,9.92832643 L32.925244,9.92832643 C33.2801505,9.72674071 33.7302093,9.80613014 33.9927102,10.1166254 C34.8447639,11.1244632 35.5365172,11.6283824 36.0679706,11.6283824 C36.6649481,11.6283824 37.1758155,11.4413781 37.6005879,11.0673639 C38.0253604,10.6933497 38.2377434,10.2570064 38.2377434,9.75832079 C38.2377434,9.25963529 38.0598009,8.78645779 37.7039104,8.33877414 C37.34802,7.89109057 36.7338311,7.34141136 35.8613256,6.68971995 C34.9888199,6.03802859 34.3889813,5.54218392 34.0617917,5.20217104 C33.7346021,4.86215816 33.4963887,4.49948319 33.3471443,4.11413526 C33.1978999,3.72878734 33.1232789,3.34344519 33.1232789,2.95809726 C33.1232789,2.13073259 33.4131531,1.43088324 33.99291,0.858528229 C34.5726671,0.286173214 35.3217478,0 36.2401748,0 C36.9519557,0 37.5718846,0.178504084 38.0999801,0.535517607 C38.3609188,0.711922515 38.7122494,1.04864529 39.1539719,1.54568594 L39.1539723,1.54568556 C39.4183795,1.84320526 39.3887814,2.29631619 39.0878631,2.55773717 C39.0774045,2.56682302 39.0666835,2.57560925 39.0557134,2.58408496 L39.0557134,2.58408496 C38.7284404,2.83694154 38.2585233,2.79365292 37.9841299,2.48537103 L37.9841307,2.48537037 Z M54.796146,4.16838097 L51.5046478,12.6248318 C51.4034361,12.884863 51.1507255,13.0564293 50.8689211,13.0564293 L50.8689211,13.0564293 C50.587811,13.0564293 50.336427,12.8833755 50.238884,12.6227089 L47.9328396,6.4602124 L45.6105695,12.623074 C45.5123861,12.8836339 45.2607696,13.0564293 44.9795377,13.0564293 L44.9795377,13.0564293 C44.6980639,13.0564293 44.4459852,12.8841504 44.3465261,12.6238083 L41.1138538,4.16203746 C41.0151278,3.90361452 41.1469808,3.61499201 41.4083558,3.51738105 C41.4654841,3.49604639 41.5260473,3.48511459 41.587115,3.48511459 L41.587115,3.48511459 C42.0286729,3.48511459 42.4252726,3.75221591 42.5869379,4.15847378 L44.6367453,9.30954879 C44.7092826,9.49183193 44.9175435,9.58146264 45.1019089,9.50974457 C45.1946682,9.47366121 45.26806,9.40104514 45.3044876,9.30930707 L47.5018167,3.77562769 C47.571406,3.60037633 47.7424154,3.48511459 47.9328396,3.48511459 L47.9328396,3.48511459 C48.1231543,3.48511459 48.2939539,3.60061597 48.3629578,3.77597729 L50.5478773,9.328575 C50.6197117,9.51113007 50.8276258,9.6015445 51.0122661,9.53052136 C51.1048542,9.49490664 51.178358,9.42292371 51.215262,9.33172571 L53.3060788,4.1648458 C53.4722069,3.75430584 53.8743858,3.48511459 54.3216153,3.48511459 L54.3216153,3.48511459 C54.6024279,3.48511459 54.8300715,3.71018716 54.8300715,3.98782825 C54.8300715,4.04956148 54.8185711,4.11076674 54.796146,4.16838097 Z M64.9552243,12.7504192 L64.9552243,12.7504192 C64.5700459,12.7504192 64.2577973,12.4416971 64.2577973,12.0608691 L64.2577973,11.3903745 C63.2360473,12.5010832 62.0593304,13.0564293 60.7276113,13.0564293 C59.3958922,13.0564293 58.2564858,12.5719182 57.309358,11.6028815 C56.3622302,10.6338448 55.8886734,9.47781829 55.8886734,8.1347675 C55.8886734,6.79171659 56.3651003,5.64135693 57.3179682,4.68365399 C58.2708362,3.72595105 59.4332029,3.24710676 60.8051032,3.24710676 C62.1770035,3.24710676 63.32789,3.796786 64.2577973,4.89616098 L64.2577973,4.17466471 C64.2577973,3.7938367 64.5700459,3.48511459 64.9552243,3.48511459 L64.9552243,3.48511459 C65.3404026,3.48511459 65.6526512,3.7938367 65.6526512,4.17466471 L65.6526512,12.0608691 C65.6526512,12.4416971 65.3404026,12.7504192 64.9552243,12.7504192 Z M60.8309338,11.7473862 C61.7838017,11.7473862 62.6046336,11.4073784 63.2934538,10.7273527 C63.982274,10.047327 64.3266789,9.20014093 64.3266789,8.18576914 C64.3266789,7.17139743 63.9880141,6.32137794 63.3106741,5.6356853 C62.6333343,4.94999265 61.8038924,4.60715148 60.8223236,4.60715148 C59.8407548,4.60715148 59.0113129,4.96132624 58.3339729,5.66968641 C57.6566331,6.37804657 57.3179682,7.21389907 57.3179682,8.17726886 C57.3179682,9.14063871 57.6623731,9.97649114 58.3511934,10.6848513 C59.0400136,11.3932115 59.8665855,11.7473862 60.8309338,11.7473862 Z M69.288742,4.75929914 C70.2186492,3.65992416 71.5707286,3.24710676 72.9368886,3.24710676 C74.3030486,3.24710676 75.4625457,3.72595105 76.4154136,4.68365399 C77.3682814,5.64135693 77.8447086,6.79454999 77.8447086,8.14326771 C77.8447086,9.4919855 77.3740221,10.648012 76.4326343,11.6113818 C75.4912457,12.5747516 74.35471,13.0564293 73.0229907,13.0564293 C71.6912714,13.0564293 70.5145548,12.5010832 69.4928048,11.3903745 L69.4928048,15.333464 C69.4928048,15.7189936 69.1767012,16.0315271 68.7867676,16.0315271 L68.7867676,16.0315271 C68.3968341,16.0315271 68.0807304,15.7189936 68.0807304,15.333464 L68.0807304,8.34159879 C68.0807304,8.29438207 68.0802536,8.2471665 68.0793,8.19995921 C68.2527495,6.00012605 68.6688038,5.49221579 69.288742,4.75929914 Z M72.9368886,11.7473862 C73.8782764,11.7473862 74.6962379,11.3988783 75.3907986,10.7018519 C76.0853593,10.0048255 76.4326343,9.16330621 76.4326343,8.17726886 C76.4326343,7.1912315 76.0910986,6.34971226 75.4080186,5.65268585 C74.7249393,4.95565945 73.8897564,4.60715148 72.9024479,4.60715148 C71.9151393,4.60715148 71.0856969,4.94999265 70.4140972,5.6356853 C69.7424975,6.32137794 69.4067026,7.16856393 69.4067026,8.17726886 C69.4067026,9.18597371 69.7511076,10.0331598 70.4399279,10.7188524 C71.1287481,11.4045451 71.96106,11.7473862 72.9368886,11.7473862 Z" id="JustSwap"></path>
                        </g>
                        <g id="Group" stroke-linecap="round" stroke-width="2.86985099">
                            <path d="M2.02864842,11.3484413 L6.17052096,11.3208545 C8.02417916,11.3085082 9.5168573,12.8011865 9.50451109,14.6548446 L9.4769243,18.7967171" id="Path" transform="translate(5.766618, 15.058748) rotate(45.000000) translate(-5.766618, -15.058748) "></path>
                            <path d="M9.69232974,1.57442265 L13.8342022,1.54683582 C15.6878604,1.53448959 17.1805387,3.02716783 17.1681924,4.88082597 L17.1406056,9.02269854" id="Path-Copy" transform="translate(13.430299, 5.284729) scale(-1, 1) rotate(45.000000) translate(-13.430299, -5.284729) "></path>
                        </g>
                    </g>
                </g>
            </g>
        </g>
    </g>
</svg>